<mxfile host="70ee0294-c558-4fd7-af9f-f51ea964bce2" modified="2020-09-08T06:53:05.550Z" agent="5.0 (Macintosh; Intel Mac OS X 10_15_6) AppleWebKit/537.36 (KHTML, like Gecko) Code/1.48.2 Chrome/78.0.3904.130 Electron/7.3.2 Safari/537.36" etag="2SpqeglSgH8GYmmBNJG4" version="13.1.3">
    <diagram id="6hGFLwfOUW9BJ-s0fimq" name="Page-1">
        <mxGraphModel dx="799" dy="840" grid="0" gridSize="10" guides="1" tooltips="1" connect="1" arrows="1" fold="1" page="1" pageScale="1" pageWidth="827" pageHeight="1169" math="0" shadow="0">
            <root>
                <mxCell id="0"/>
                <mxCell id="1" parent="0"/>
                <mxCell id="8" value="&lt;table border=&quot;1&quot; width=&quot;100%&quot; cellpadding=&quot;4&quot; style=&quot;width: 100% ; height: 100% ; border-collapse: collapse&quot;&gt;&lt;tbody&gt;&lt;tr style=&quot;background-color: #a7c942 ; color: #ffffff ; border: 1px solid #98bf21&quot;&gt;&lt;th&gt;序号&lt;/th&gt;&lt;th&gt;卡号&lt;/th&gt;&lt;th&gt;卡密&lt;/th&gt;&lt;td&gt;状态&lt;/td&gt;&lt;td&gt;创建时间&lt;/td&gt;&lt;td&gt;更新时间&lt;/td&gt;&lt;/tr&gt;&lt;tr style=&quot;border: 1px solid #98bf21&quot;&gt;&lt;td&gt;1&lt;/td&gt;&lt;td&gt;10003000&lt;/td&gt;&lt;td&gt;D4B3589C328C&lt;/td&gt;&lt;td&gt;1&lt;/td&gt;&lt;td&gt;2020-09-08 14:04:49&lt;/td&gt;&lt;td&gt;2020-09-08 14:04:53&lt;/td&gt;&lt;/tr&gt;&lt;tr style=&quot;background-color: #eaf2d3 ; border: 1px solid #98bf21&quot;&gt;&lt;td&gt;2&lt;/td&gt;&lt;td&gt;10032001&lt;/td&gt;&lt;td&gt;0D3DA05D7F8F&lt;/td&gt;&lt;td&gt;1&lt;/td&gt;&lt;td&gt;2020-09-08 14:04:56&lt;/td&gt;&lt;td&gt;2020-09-08 14:04:58&lt;/td&gt;&lt;/tr&gt;&lt;tr style=&quot;border: 1px solid #98bf21&quot;&gt;&lt;td&gt;3&lt;/td&gt;&lt;td&gt;22002002&lt;/td&gt;&lt;td&gt;EC29A7B2115F&lt;/td&gt;&lt;td&gt;0&lt;/td&gt;&lt;td&gt;2020-09-08 14:05:00&lt;/td&gt;&lt;td&gt;(null)&lt;/td&gt;&lt;/tr&gt;&lt;tr style=&quot;background-color: #eaf2d3 ; border: 1px solid #98bf21&quot;&gt;&lt;td&gt;4&lt;/td&gt;&lt;td&gt;10332000&lt;/td&gt;&lt;td&gt;C90CE0E7577B&lt;/td&gt;&lt;td&gt;0&lt;/td&gt;&lt;td&gt;2020-09-08 14:05:05&lt;/td&gt;&lt;td&gt;(null)&lt;br&gt;&lt;/td&gt;&lt;/tr&gt;&lt;tr&gt;&lt;td&gt;5&lt;/td&gt;&lt;td&gt;30000034&lt;/td&gt;&lt;td&gt;87F719642E41&lt;br&gt;&lt;/td&gt;&lt;td&gt;0&lt;/td&gt;&lt;td&gt;2020-09-08 14:05:09&lt;/td&gt;&lt;td&gt;(null)&lt;br&gt;&lt;/td&gt;&lt;/tr&gt;&lt;tr&gt;&lt;td&gt;6&lt;/td&gt;&lt;td&gt;...&lt;/td&gt;&lt;td&gt;...&lt;/td&gt;&lt;td&gt;...&lt;/td&gt;&lt;td&gt;...&lt;/td&gt;&lt;td&gt;...&lt;/td&gt;&lt;/tr&gt;&lt;/tbody&gt;&lt;/table&gt;" style="text;html=1;strokeColor=#c0c0c0;fillColor=#ffffff;overflow=fill;rounded=0;align=center;" vertex="1" parent="1">
                    <mxGeometry x="140" y="300" width="500" height="210" as="geometry"/>
                </mxCell>
                <mxCell id="17" value="&lt;div&gt;序号：自增长序号，&lt;span&gt;主键/唯一索引&lt;/span&gt;&lt;/div&gt;&lt;div&gt;&lt;span&gt;卡号：主键/唯一索引（无连续性）&lt;/span&gt;&lt;/div&gt;&lt;div&gt;&lt;span&gt;状态：0新增 1占用 2已用（无分散性）&lt;/span&gt;&lt;/div&gt;" style="text;html=1;strokeColor=none;fillColor=none;align=left;verticalAlign=middle;whiteSpace=wrap;rounded=0;" vertex="1" parent="1">
                    <mxGeometry x="376" y="260" width="264" height="20" as="geometry"/>
                </mxCell>
                <mxCell id="36" style="edgeStyle=orthogonalEdgeStyle;rounded=0;orthogonalLoop=1;jettySize=auto;html=1;entryX=0;entryY=0.5;entryDx=0;entryDy=0;exitX=0;exitY=0.75;exitDx=0;exitDy=0;" edge="1" parent="1" source="18" target="8">
                    <mxGeometry relative="1" as="geometry">
                        <Array as="points">
                            <mxPoint x="88" y="208"/>
                            <mxPoint x="88" y="405"/>
                        </Array>
                    </mxGeometry>
                </mxCell>
                <mxCell id="18" value="&lt;table border=&quot;1&quot; width=&quot;100%&quot; cellpadding=&quot;4&quot; style=&quot;width: 100% ; height: 100% ; border-collapse: collapse&quot;&gt;&lt;tbody&gt;&lt;tr style=&quot;background-color: #a7c942 ; color: #ffffff ; border: 1px solid #98bf21&quot;&gt;&lt;th&gt;名称&lt;/th&gt;&lt;td&gt;消费序号&lt;/td&gt;&lt;td&gt;可用序号&lt;/td&gt;&lt;td&gt;创建时间&lt;/td&gt;&lt;td&gt;更新时间&lt;/td&gt;&lt;/tr&gt;&lt;tr style=&quot;border: 1px solid #98bf21&quot;&gt;&lt;td&gt;卡&lt;/td&gt;&lt;td&gt;1&lt;/td&gt;&lt;td&gt;1000000&lt;/td&gt;&lt;td&gt;2020-09-08 14:04:49&lt;/td&gt;&lt;td&gt;2020-09-08 14:04:53&lt;/td&gt;&lt;/tr&gt;&lt;/tbody&gt;&lt;/table&gt;" style="text;html=1;strokeColor=#c0c0c0;fillColor=#ffffff;overflow=fill;rounded=0;align=center;" vertex="1" parent="1">
                    <mxGeometry x="140" y="170" width="500" height="50" as="geometry"/>
                </mxCell>
                <mxCell id="19" value="&lt;div&gt;序号表&lt;/div&gt;" style="text;html=1;align=center;verticalAlign=middle;whiteSpace=wrap;rounded=0;fillColor=#fff2cc;strokeColor=#d6b656;" vertex="1" parent="1">
                    <mxGeometry x="140" y="150" width="90" height="20" as="geometry"/>
                </mxCell>
                <mxCell id="22" value="" style="edgeStyle=orthogonalEdgeStyle;rounded=0;orthogonalLoop=1;jettySize=auto;html=1;" edge="1" parent="1" source="20" target="21">
                    <mxGeometry relative="1" as="geometry"/>
                </mxCell>
                <mxCell id="20" value="从序号表&lt;font color=&quot;#ff3333&quot; size=&quot;1&quot;&gt;&lt;b style=&quot;font-size: 15px&quot;&gt;叫号&lt;/b&gt;&lt;/font&gt;" style="shape=ext;double=1;rounded=1;whiteSpace=wrap;html=1;" vertex="1" parent="1">
                    <mxGeometry x="135" y="585" width="120" height="55" as="geometry"/>
                </mxCell>
                <mxCell id="24" value="" style="edgeStyle=orthogonalEdgeStyle;rounded=0;orthogonalLoop=1;jettySize=auto;html=1;" edge="1" parent="1" source="21" target="23">
                    <mxGeometry relative="1" as="geometry"/>
                </mxCell>
                <mxCell id="21" value="使用叫到的号去卡表中&lt;font style=&quot;font-size: 15px&quot; color=&quot;#ff3333&quot;&gt;&lt;b&gt;占用&lt;/b&gt;&lt;/font&gt;" style="shape=ext;double=1;rounded=1;whiteSpace=wrap;html=1;" vertex="1" parent="1">
                    <mxGeometry x="295" y="585" width="160" height="55" as="geometry"/>
                </mxCell>
                <mxCell id="23" value="使用叫到的号去卡表中&lt;font style=&quot;font-size: 15px&quot; color=&quot;#ff3333&quot;&gt;消费&lt;/font&gt;" style="shape=ext;double=1;rounded=1;whiteSpace=wrap;html=1;" vertex="1" parent="1">
                    <mxGeometry x="485" y="585" width="160" height="55" as="geometry"/>
                </mxCell>
                <mxCell id="25" value="第1步" style="text;strokeColor=none;fillColor=none;html=1;fontSize=24;fontStyle=1;verticalAlign=middle;align=center;" vertex="1" parent="1">
                    <mxGeometry x="145" y="545" width="100" height="40" as="geometry"/>
                </mxCell>
                <mxCell id="26" value="第2步" style="text;strokeColor=none;fillColor=none;html=1;fontSize=24;fontStyle=1;verticalAlign=middle;align=center;" vertex="1" parent="1">
                    <mxGeometry x="325" y="545" width="100" height="40" as="geometry"/>
                </mxCell>
                <mxCell id="27" value="第3步" style="text;strokeColor=none;fillColor=none;html=1;fontSize=24;fontStyle=1;verticalAlign=middle;align=center;" vertex="1" parent="1">
                    <mxGeometry x="510" y="545" width="100" height="40" as="geometry"/>
                </mxCell>
                <mxCell id="28" value="&lt;font style=&quot;font-size: 12px&quot;&gt;闲时&lt;/font&gt;&lt;b style=&quot;color: rgb(255 , 51 , 51) ; font-size: 15px&quot;&gt;回收&lt;/b&gt;超时未消费的卡&lt;br&gt;（更新为可用序号）" style="shape=ext;double=1;rounded=1;whiteSpace=wrap;html=1;" vertex="1" parent="1">
                    <mxGeometry x="425" y="710" width="160" height="55" as="geometry"/>
                </mxCell>
                <mxCell id="29" value="卡表回收" style="text;strokeColor=none;fillColor=none;html=1;fontSize=24;fontStyle=1;verticalAlign=middle;align=center;" vertex="1" parent="1">
                    <mxGeometry x="455" y="670" width="100" height="40" as="geometry"/>
                </mxCell>
                <mxCell id="33" value="&lt;div&gt;卡表&lt;/div&gt;" style="text;html=1;align=center;verticalAlign=middle;whiteSpace=wrap;rounded=0;fillColor=#fff2cc;strokeColor=#d6b656;" vertex="1" parent="1">
                    <mxGeometry x="140" y="280" width="90" height="20" as="geometry"/>
                </mxCell>
                <mxCell id="34" value="当可用序号低于阈值时，批量&lt;font style=&quot;font-size: 15px&quot; color=&quot;#ff3333&quot;&gt;&lt;b&gt;生产&lt;/b&gt;&lt;/font&gt;新的卡表数据" style="shape=ext;double=1;rounded=1;whiteSpace=wrap;html=1;" vertex="1" parent="1">
                    <mxGeometry x="180" y="710" width="160" height="55" as="geometry"/>
                </mxCell>
                <mxCell id="35" value="卡表生产" style="text;strokeColor=none;fillColor=none;html=1;fontSize=24;fontStyle=1;verticalAlign=middle;align=center;" vertex="1" parent="1">
                    <mxGeometry x="210" y="670" width="100" height="40" as="geometry"/>
                </mxCell>
                <mxCell id="37" value="用有序&lt;br&gt;抗无序" style="text;html=1;strokeColor=none;fillColor=none;align=center;verticalAlign=middle;whiteSpace=wrap;rounded=0;fontStyle=1;fontColor=#FF3333;" vertex="1" parent="1">
                    <mxGeometry x="35" y="253" width="54" height="84" as="geometry"/>
                </mxCell>
            </root>
        </mxGraphModel>
    </diagram>
</mxfile>